<?xml version="1.0" standalone="no"?>
<!DOCTYPE svg PUBLIC "-//W3C//DTD SVG 1.1//EN" "http://www.w3.org/Graphics/SVG/1.1/DTD/svg11.dtd" >
<!--
2013-9-30: Created.
-->
<svg>
<metadata>
Created by iconfont
</metadata>
<defs>

<font id="iconfont" horiz-adv-x="1024" >
  <font-face
    font-family="iconfont"
    font-weight="500"
    font-stretch="normal"
    units-per-em="1024"
    ascent="896"
    descent="-128"
  />
    <missing-glyph />
    
    <glyph glyph-name="dingqi" unicode="&#59175;" d="M267.403213 528.866389l-57.399291 0 0-19.132756 57.399291 0L267.403213 528.866389zM210.003921 299.27741l57.399291 0 0 19.133779-57.399291 0L210.003921 299.27741zM76.079746 69.690478 76.079746 662.792611l133.924175 0L210.003921 796.717809l516.575202 0L726.579123 564.885743c6.460132-0.714268 12.784164-1.853208 19.132756-2.920516L745.711879 795.025261c0 11.501962-9.274224 20.826328-20.714787 20.826328L207.128431 815.851589c-11.440563 0-16.256242-7.630794-16.256242-19.133779l0-114.794489L76.079746 681.92332c-11.43954 0-19.132756-5.569856-19.132756-17.069771l0-593.470523c0-11.499915 9.273201-20.825304 20.712741-20.825304l312.721351 0c-3.622504 6.253424-6.996344 12.639878-10.227945 19.132756L76.079746 69.690478zM498.103502 509.733633c10.55131 7.007601 21.587668 13.300934 32.912597 19.132756L305.665655 528.866389l0-19.132756L498.103502 509.733633zM688.315658 490.600877c-147.931191 0-267.852444-119.92023-267.852444-267.851421 0-147.929144 119.921253-267.852444 267.852444-267.852444 147.929144 0 267.852444 119.924323 267.852444 267.852444C956.168102 370.680647 836.243779 490.600877 688.315658 490.600877zM688.315658-25.971255c-137.365554 0-248.722758 111.356181-248.722758 248.720711 0 137.366577 111.357204 248.720711 248.722758 248.720711 137.361461 0 248.720711-111.354134 248.720711-248.720711C937.035346 85.384925 825.677119-25.971255 688.315658-25.971255zM705.765075 120.266363l0 56.467059 93.461625 0 0 19.945261-93.461625 0 0 43.664475 110.112863 0 0 20.213367L560.738028 260.556527l0-20.213367 122.734322 0 0-118.594025c-29.186739 4.40431-50.714032 21.428032-64.591087 51.076282 4.38589 14.373359 7.655354 29.871331 9.804297 46.493917l-22.559808 3.504824c-4.657067-49.773613-21.845541-87.510076-51.567469-113.202225 5.375427-7.007601 10.117428-14.016225 14.237259-21.023826 17.45658 16.441461 31.287587 36.56887 41.491996 60.374042 18.97926-32.879851 48.65514-49.321312 89.032756-49.321312 32.763195-1.078565 71.080895-1.350764 114.944915-0.809435 2.148943 7.906064 4.747117 15.362896 7.789407 22.37152C780.159436 119.685125 741.393527 119.371994 705.765075 120.266363zM591.622432 302.875355l195.250916 0 0-30.994921 21.215184 0L808.088532 323.088722 699.320293 323.088722l12.084223 6.467295c-8.238638 10.061147-15.84385 19.137873-22.829961 27.225061l-20.409842-11.050684c5.907547-7.368828 11.501962-14.915711 16.785292-22.641673L570.405201 323.088722l0-50.939159 21.217231 0L591.622432 302.875355z"  horiz-adv-x="1024" />

    
    <glyph glyph-name="huoqi" unicode="&#59177;" d="M215.44791 299.149497l57.398268 0 0 19.133779-57.398268 0L215.44791 299.149497zM503.544421 509.606743c10.55131 7.007601 21.587668 13.300934 32.912597 19.132756L311.109644 528.739499l0-19.132756L503.544421 509.606743zM81.521688 69.560518L81.521688 662.665721l133.925199 0L215.446887 796.590919l516.574179 0 0-231.833089c6.460132-0.714268 12.784164-1.851161 19.132756-2.919493L751.153822 794.897348c0 11.501962-9.272177 20.826328-20.713764 20.826328L212.570373 815.723675c-11.43954 0-16.255219-7.630794-16.255219-19.133779l0-114.794489L81.521688 681.7954070000001c-11.440563 0-19.132756-5.569856-19.132756-17.069771l0-593.471546c0-11.499915 9.272177-20.825304 20.713764-20.825304l312.719304 0c-3.621481 6.253424-6.996344 12.638855-10.226922 19.130709L81.521688 69.55949499999997zM272.846178 528.738475l-57.398268 0 0-19.132756 57.398268 0L272.846178 528.738475zM693.7576 490.472963c-147.931191 0-267.854491-119.92023-267.854491-267.852444 0-147.929144 119.9233-267.853467 267.854491-267.853467 147.930167 0 267.852444 119.924323 267.852444 267.853467C961.610044 370.55170999999996 841.687768 490.472963 693.7576 490.472963zM693.7576-26.100191999999993c-137.365554 0-248.724805 111.356181-248.724805 248.720711 0 137.366577 111.358227 248.720711 248.724805 248.720711 137.360438 0 248.719688-111.354134 248.719688-248.720711C942.477288 85.255988 831.119061-26.100191999999993 693.7576-26.100191999999993zM569.82294 102.22445200000004l23.775496-10.465352c9.972119 30.293957 20.213367 61.442374 30.720675 93.438089-6.054903 2.211365-13.622252 5.615904-22.706141 10.213619C592.707137 161.53937199999996 582.111824 130.47691299999997 569.82294 102.22445200000004zM740.79387 304.679443c30.80868 1.702782 56.986899 3.575432 78.537727 5.615904l-4.27435 20.169365c-52.892651-5.447059-109.974717-8.934486-171.236989-10.467399 1.423419-6.809079 2.759857-13.273305 4.006244-19.401886 25.734104 0.935302 49.508577 1.913583 71.327512 2.935865l0-42.762943-84.149539 0 0-19.404955 84.149539 0 0-42.888809-66.248843 0 0-109.781312 20.834514 0 0 15.32094 112.466468 0 0-15.32094 20.836561 0L807.042713 198.473563l-66.249867 0 0 42.888809 87.085404 0 0 19.404955-87.085404 0L740.792846 304.679443zM786.207176 180.09088999999994l0-57.69912L673.740708 122.39176999999995l0 57.69912L786.207176 180.09088999999994zM572.22771 322.29463599999997c14.601556-10.55131 30.185486-22.722514 46.749744-36.506449 4.986571 5.78475 9.884115 11.571546 14.691607 17.361413-14.959713 11.568477-30.988782 22.975271-48.085158 34.206056L572.22771 322.29463599999997zM623.784946 238.302687c-15.673981 11.232832-32.679283 22.12388-51.02307 32.677237l-12.82305-16.338107c13.000082-8.001231 29.385261-19.574824 49.155537-34.721803C613.543697 225.36502700000005 618.442264 231.49053700000002 623.784946 238.302687z"  horiz-adv-x="1024" />

    
    <glyph glyph-name="service" unicode="&#59323;" d="M516.080945 125.456572c4.373611 0 8.823969 0.26913 13.299911 0.797156 42.959418 5.15951 79.437214 35.18536 92.89983 76.561723 1.016143 3.093455-0.452301 6.408967-3.413749 7.770987-2.931772 1.36509-6.477528 0.183172-8.132214-2.591011-0.158612-0.264013-17.226337-27.832905-83.670631-36.806277-9.945513-1.335415-19.623943-2.035356-28.79686-2.035356-46.552246 0.029676-67.298755 17.575284-67.48602 17.736966-2.342348 2.082428-5.916756 2.137687-8.320503 0.107447-2.423189-2.02717-2.981914-5.555529-1.330298-8.252964C441.396989 145.890974 477.759151 125.456572 516.080945 125.456572L516.080945 125.456572 516.080945 125.456572zM516.080945 125.456572M873.350908 537.244196c-0.588401 0-1.122567-0.106424-1.677199-0.106424C832.742025 705.688583 683.97991 831.418123 505.626849 831.418123c-183.260837 0-335.435679-132.675742-369.160781-308.199361-32.794917-5.901407-57.757448-34.723849-57.757448-69.585845l0-139.514497c0-39.102576 31.357172-70.809719 70.074985-70.809719 21.839401 0 41.116443 10.31288 53.93847 26.151613 30.985712-81.954547 94.065376-148.032498 173.894516-182.89347 0.191358 0.414439 1.701758 3.354398 3.51915 5.696746 1.25969 1.62194 2.667759 2.952238 3.874237 2.952238 1.255597 0 2.4017-0.452301 3.384074-1.147126-18.475793 13.755282-85.210707 84.463694-99.666954 183.135994-6.345522 43.433208 26.185382 86.068238 64.071248 93.116771 60.821227 11.329023 121.325229 24.227798 182.146457 35.337833 38.661531 7.054673 65.083298 28.260647 81.242326 63.573921 3.78521 8.256034 9.250688 24.949228 11.758812 49.018414 0.666172 3.579525 3.601015 6.328126 7.361665 6.328126 2.509147 0 4.64274-1.280156 6.054903-3.128247l1.677199 1.045819c23.970948-34.80469 71.513754-111.865787 78.341253-193.124486 7.837502-92.903923 3.463891-156.532079-67.64361-221.62868-0.084934-0.080841-0.192382-0.183172-0.294712-0.26913-0.989537-1.063215-1.573845-2.453888-1.573845-3.977591 0-2.001587 1.066285-3.711532 2.611477-4.752234 0.584308-0.243547 1.172709-0.563842 1.762133-0.806365 0.476861-0.107447 0.934279-0.260943 1.412163-0.260943 0.481977 0 0.908696 0.154519 1.334391 0.260943 1.01205 0.533143 1.971911 1.151219 2.957355 1.685385 71.91489 39.617299 127.081327 105.776092 152.571884 185.354522 10.321066-15.331173 26.477025-26.365484 45.246507-30.214139C828.662103 117.844198 706.543811 32.152537 555.252083 19.142222c-9.067516 22.491247-31.383778 38.46608-57.595766 38.46608-34.233686 0-61.993936-27.117614-61.993936-60.530608 0-33.414017 27.756157-60.496839 61.993936-60.496839 27.598568 0 50.717102 17.732873 58.738799 42.092677C731.526809-7.08614 871.91214 97.009683 901.216559 258.746298c25.892717 10.821463 44.073798 36.222993 44.073798 65.87329L945.290357 465.785701C945.290357 505.242342 913.079748 537.244196 873.350908 537.244196L873.350908 537.244196 873.350908 537.244196zM808.744471 496.695688c-45.677319 123.727952-164.03803 212.117049-303.275211 212.117049-138.65799 0-256.591983-87.639013-302.691927-210.568786-2.296299 2.807952-4.983501 5.210675-7.624654 7.637957 26.100448 149.802818 155.021679 263.700891 310.473147 263.700891 154.705478 0 283.225573-112.778576 310.183552-261.536598C813.143665 504.466676 810.689776 500.728538 808.744471 496.695688L808.744471 496.695688 808.744471 496.695688zM808.744471 496.695688M376.629893 86.567867l-0.01228 0C376.591007 86.504422 376.591007 86.495212 376.629893 86.567867L376.629893 86.567867 376.629893 86.567867zM376.629893 86.567867"  horiz-adv-x="1024" />

    
    <glyph glyph-name="bad" unicode="&#58936;" d="M666.83188 60.901053c-26.854977 69.100752-53.76 142.782556-80.915248 220.625804-6.544361 18.766917 7.383579 38.380752 27.259188 38.380752h272.372451c48.932571 0 88.591398 39.658827 88.591398 88.595248 0 28.129203-13.146466 54.010226-35.147067 70.679098a28.87218 28.87218 0 0 0-8.580813 35.53203 88.137143 88.137143 0 0 1 8.704 38.361504c0 32.56782-17.685173 61.994346-45.648842 77.523729-16.611128 9.223699-19.937203 31.697805-6.709894 45.337023a61.174376 61.174376 0 0 1 17.334857 42.80012 61.459248 61.459248 0 0 1-31.828692 53.875489 28.87218 28.87218 0 0 0-14.894195 26.246736c0.019248 20.187429-15.375398 35.578226-34.377143 35.578226H377.744361a97.476331 97.476331 0 0 1-3.764932 0.127038H85.557895a25.022556 25.022556 0 0 1-25.026406-25.014858V321.905564a25.011008 25.011008 0 0 1 25.026406-25.022556h232.193925a28.87218 28.87218 0 0 0 25.557654-15.436993c28.529564-54.279699 57.929143-99.512782 87.205534-132.003609 31.243549-34.665865 50.661053-70.825383 60.797112-108.963609 7.237293-27.224541 8.892632-47.196391 9.254497-83.332812 0.10009-10.132211 0.261774-15.718015 0.627488-19.482947 89.411368-26.708692 196.661895 56.539429 165.637775 123.241864z m52.778346 23.44421c55.646316-122.071579-113.305985-248.681865-246.972632-197.93997-16.961444 8.192-24.560602 20.822617-27.640301 36.725414-1.670737 8.650105-1.997955 15.598677-2.175037 33.441684-0.31182 31.609263-1.655338 47.766135-7.314286 69.073804-7.803188 29.357233-22.828271 57.332451-47.889323 85.142136-30.042466 33.337744-59.122526 76.919338-87.159339 128.354165H85.557895c-45.725835 0-82.770767 37.048782-82.770767 82.763068V809.548992C2.787128 855.259429 39.843609 892.304361 85.557895 892.304361h288.425383c1.555248 0 3.106647-0.038496 4.658045-0.127038h444.346707c46.08385 0 84.264421-33.815098 91.066707-77.985684a119.130466 119.130466 0 0 0 47.781534-95.459128 118.930286 118.930286 0 0 0-14.085775-56.262255A146.162526 146.162526 0 0 0 996.86015 553.075489c0-14.609323-2.15194-28.941474-6.313383-42.623038a146.012391 146.012391 0 0 0 41.337263-101.949594c0-80.830556-65.512902-146.339609-146.335759-146.339609h-231.620331c22.250827-62.814316 44.247579-122.506586 65.682286-177.817985zM281.022556 277.731128V858.947368a28.87218 28.87218 0 1 0 57.744361 0v-581.21624a28.87218 28.87218 0 1 0-57.744361 0z"  horiz-adv-x="1035" />

    
    <glyph glyph-name="good" unicode="&#58961;" d="M890.88 531.627c-13.653 3.413-29.013 5.973-46.080 5.973h-33.28c-0.853-6.827-86.187 0-86.187 0l11.947 85.333c4.267 52.053 5.12 106.667 5.12 145.067 0 70.827-57.173 128-128 128s-128-57.173-128-128v-25.6c0-136.533-107.52-249.173-243.2-256h-140.8c-56.32 0-102.4-46.080-102.4-102.4v-409.6c0-56.32 46.080-102.4 102.4-102.4h665.6l5.12 0.853c43.52 1.707 83.627 25.6 105.813 63.147 0.853 0.853 0.853 2.56 1.707 3.413 5.12 11.947 115.2 290.133 137.387 372.907 25.6 95.573-31.573 193.707-127.147 219.307zM221.867-42.667h-119.467c-9.387 0-17.067 7.68-17.067 17.067v409.6c0 9.387 7.68 17.067 17.067 17.067h119.467v-443.733zM935.253 334.507c-8.533-32.427-34.987-106.667-72.533-204.8-13.653-35.84-27.307-72.533-41.813-107.52-5.12-12.8-9.387-24.747-13.653-34.987-1.707-4.267-3.413-7.68-4.267-11.093-7.68-10.24-19.627-17.067-35.84-17.92h-459.947v451.413c151.893 34.987 264.533 171.52 264.533 332.8v25.6c0 23.893 18.773 42.667 42.667 42.667s42.667-18.773 42.667-42.667c0-84.48-5.12-162.987-15.36-212.48l-23.040-103.253 226.133-0.853c10.24 0 17.92-0.853 23.893-2.56 50.347-12.8 80.213-64.853 66.56-114.347z"  horiz-adv-x="1024" />

    
    <glyph glyph-name="quanbu" unicode="&#58935;" d="M606.815573 297.566815c-8.495407 0-16.990815 1.820444-24.272592 4.854518L39.443721 534.831407A66.939259 66.939259 0 0 0 0.000759 596.119704c0 26.699852 15.777185 50.972444 39.442962 61.288296L582.542981 890.424889c15.777185 6.674963 33.374815 6.674963 49.152 0L1174.187425 658.014815c24.272593-10.315852 39.442963-34.588444 39.442963-61.288296 0-26.699852-15.777185-50.972444-39.442963-61.288297L631.088166 302.459259a54.347852 54.347852 0 0 0-24.272593-4.854518z m0 531.569778L65.536759 597.333333s0-1.820444 0.606814-2.427259L606.815573 363.140741l541.278815 231.803259s0 1.820444-0.606815 2.427259L606.815573 829.136593zM606.815573 95.497481c-8.495407 0-16.384 1.820444-24.272592 4.854519L39.443721 333.368889C15.171129 343.684741 0.000759 367.957333 0.000759 394.657185c0 26.699852 15.777185 50.972444 39.442962 61.288296 16.384 7.281778 35.802074-1.21363 43.083852-17.597629 7.281778-16.384-0.606815-35.195259-16.990814-43.690667 0 0 0-1.21363 0.606814-1.820444L606.815573 161.640296l541.278815 232.410074s0 1.820444-0.606815 2.42726a32.730074 32.730074 0 1 0 26.093037 60.074666c24.272593-10.315852 39.442963-34.588444 39.442963-61.288296 0-26.699852-15.777185-50.972444-39.442963-61.288296L631.088166 100.958815a56.661333 56.661333 0 0 0-24.272593-5.461334zM606.815573-105.965037c-8.495407 0-16.384 1.820444-24.272592 4.854518L39.443721 131.90637C15.171129 142.222222 0.000759 166.494815 0.000759 193.232593c0 26.699852 15.777185 50.972444 39.442962 61.288296 16.384 7.281778 35.802074 2.427259 43.083852-13.956741a29.278815 29.278815 0 0 0-16.990814-40.049778s0-4.854519 0.606814-5.461333L606.815573-38.001778l541.278815 231.196445s0 1.21363-0.606815 1.820444a32.237037 32.237037 0 0 0-16.990814 42.477037 32.95763 32.95763 0 0 0 43.083851 16.990815c24.272593-10.315852 39.442963-34.588444 39.442963-61.288296 0-26.699852-15.777185-50.972444-39.442963-61.288297L631.088166-100.503704a56.661333 56.661333 0 0 0-24.272593-5.461333z"  horiz-adv-x="1213" />

    
    <glyph glyph-name="shoujiyinhang" unicode="&#58880;" d="M686.976 480h-83.328L512 370.048l-91.648 109.952h-83.328l106.624-128H320v-64h160v-64H320v-64h160V64h64v96H704v64H544v64H704v64h-123.648l106.624 128zM512 896L0 384v-90.496l170.624 170.624L192 485.504l320 320 512-512V384L512 896zM896 331.00800000000004l-64 64V-64H192V395.008l-21.376-21.376L128 331.00800000000004V-64H64v-64h896v64h-64V331.00800000000004z"  horiz-adv-x="1024" />

    
    <glyph glyph-name="queshaotixing" unicode="&#58977;" d="M512.022513-61.937398c246.711961 0 447.418123 200.707185 447.418122 447.418122S758.734474 832.898847 512.022513 832.898847 64.60439 632.192685 64.60439 385.480724s200.707185-447.418123 447.418123-447.418122z m-49.92097 623.243616c0 27.457352 22.466688 49.925063 49.926086 49.925063 27.459399 0 49.927109-22.467711 49.92711-49.925063v-199.705367c0-27.460422-22.467711-49.929156-49.92711-49.929156s-49.926086 22.467711-49.926086 49.929156V561.306218z m49.926086-301.727972c27.574009 0 49.927109-22.354124 49.92711-49.929156 0-27.571962-22.353101-49.925063-49.92711-49.925063-27.572986 0-49.926086 22.354124-49.926086 49.925063 0 27.575032 22.352077 49.929156 49.926086 49.929156z"  horiz-adv-x="1024" />

    
    <glyph glyph-name="huoqicunkuan" unicode="&#58953;" d="M1024 384c0-282.784-229.216-512-512-512S0 101.216 0 384 229.216 896 512 896s512-229.216 512-512zM790.976 317.568c-36.224-118.912-146.112-205.28-275.36-205.28-131.552 0-244.064 89.792-277.664 212.512-10.976 28.032-14.464 59.52-14.464 59.52-2.336 13.408 6.08 18.08 16.832 11.04 0 0 35.072-23.04 49.568-31.488 27.808-15.712 35.072-21.888 35.072-21.888 16.832-11.04 11.616-24.192-6.336-30.336l-22.88-7.296c38.56-82.496 124.928-145.472 222.592-145.472 108.672 0 203.424 77.536 233.6 175.808 1.152 6.112 8.416 11.04 15.616 11.04h19.968c7.264 0 10.976-4.96 8.416-11.04l-3.488-14.56c-0.288 0-1.44-1.44-1.44-2.592zM274.72 477.536c27.808 102.048 124.928 184.256 235.872 184.256 99.104 0 187.52-65.344 225.184-151.616l-26.656-8.448c-19.392-6.112-24.672-20.736-8.992-32.64 0 0 2.336-3.52 30.144-20.736 13.344-8.448 48.416-31.488 48.416-31.488 10.976-7.296 19.392-2.368 17.984 11.04 0 0 0 15.712-4.928 40.224-25.184 135.616-142.304 237.664-283.424 237.664s-258.56-102.048-284.064-236.768c0-1.152 0-2.368-1.152-3.52 0-4.96 4.928-9.6 12.192-11.04l18.816-1.152c6.08 0 13.344 4.96 15.616 11.04 0 0 2.336 7.296 2.336 9.6 2.624 0.864 2.624 2.08 2.624 3.52zM537.792 422.432v-46.08h74.56a23.04 23.04 0 1 0 0-46.08h-74.56v-53.184a23.04 23.04 0 1 0-46.08 0v53.184h-77.6a23.04 23.04 0 1 0 0 46.08h77.6v46.08h-77.6a23.04 23.04 0 1 0 0 46.08h47.104l-28.192 48.864a23.04 23.04 0 1 0 39.936 23.04l38.048-65.888c1.12-1.92 1.92-3.936 2.432-6.016h8.832a23.52 23.52 0 0 0 2.432 6.016l38.048 65.888a23.104 23.104 0 0 0 39.936-23.04l-28.192-48.864h37.984a23.04 23.04 0 1 0 0-46.08h-74.56z"  horiz-adv-x="1024" />

    
    <glyph glyph-name="gongsi" unicode="&#58881;" d="M951.721 37.31899999999996c-4.657 4.738-10.704 7.238-17.486 7.238h-28.923V444.156c0 42.08-37.211 77.635-81.261 77.635H690.117V706.537c0 37.229-29.133 69.331-66.353 76.242a81.626 81.626 0 0 1-14.908 1.393H211.337c-5.077 0-10.057-0.493-14.906-1.393-37.218-6.911-66.354-39.013-66.354-76.242v-661.98H95.459c-4.333 0-8.633-1.123-12.62-3.023-10.787-5.142-19.202-16.151-19.202-27.339 0-15.596 15.438-30.341 31.782-30.365l0.04-0.002H928.54l0.038 0.002c16.046 0.024 31.783 15.048 31.783 30.315 0.067 9.08-3.082 17.526-8.64 23.174zM690.117 153.76V461.062h133.934c5.58 0 12.441-6.254 12.441-11.334v-399.684H690.117V153.76z m-63.726 552.777v-661.98H198.897v661.98c0 4.68 6.437 11.334 12.44 11.334l402.956 0.009 0.446 0.013c5.66 0 11.652-5.839 11.652-11.356zM509.971 282.461H316.348c-16.059 0-31.821-15.039-31.821-30.362 0-17.904 10.93-36.027 31.821-36.027h193.107c16.058 0 31.821 15.039 31.821 30.322 0.062 9.03-4.493 19.295-11.875 26.801-5.885 5.977-12.786 9.266-19.43 9.266z m0 298.631H316.348c-16.059 0-31.821-15.043-31.821-30.362 0-15.609 15.462-30.367 31.821-30.367h193.107c16.058 0 31.821 15.043 31.821 30.313 0.053 7.127-3.225 14.575-8.99 20.436-6.239 6.342-14.372 9.98-22.315 9.98z m0-164.916H316.348c-16.059 0-31.821-15.043-31.821-30.362 0-15.609 15.462-30.367 31.821-30.367h193.107c16.058 0 31.821 15.039 31.821 30.313 0.053 7.127-3.229 14.575-8.99 20.436-6.239 6.343-14.372 9.98-22.315 9.98z"  horiz-adv-x="1024" />

    
    <glyph glyph-name="kaihu" unicode="&#59072;" d="M982.625565 99.939292H84.061248a5.733019 5.733019 0 0 0-5.594874 5.594873V548.427116h1098.736459V295.06914a233.050658 233.050658 0 0 0 78.466374-0.483508v517.35312A84.199393 84.199393 0 0 1 1171.60796 896H84.061248A84.199393 84.199393 0 0 1 0 811.938752v-706.335514a84.199393 84.199393 0 0 1 84.061248-84.061248h899.255042a233.257875 233.257875 0 0 0-0.690725 78.466374zM78.466374 811.938752a5.733019 5.733019 0 0 0 5.594874 5.594874h1087.546712a5.733019 5.733019 0 0 0 5.594873-5.594874V626.617201H78.466374zM563.424486 245.751366H283.197302a39.233187 39.233187 0 0 1 0-78.466374h280.227184a39.233187 39.233187 0 0 1 0 78.466374zM972.610051 436.322428H283.197302a39.233187 39.233187 0 0 1 0-78.466374h689.550894a39.233187 39.233187 0 0 1 0 78.466374zM211.638179 722.213558m-44.828061 0a44.828061 44.828061 0 1 1 89.656121 0 44.828061 44.828061 0 1 1-89.656121 0ZM368.570927 722.213558m-44.82806 0a44.828061 44.828061 0 1 1 89.656121 0 44.828061 44.828061 0 1 1-89.656121 0ZM1215.05457 103.669207m-33.638314 0a33.638314 33.638314 0 1 1 67.276628 0 33.638314 33.638314 0 1 1-67.276628 0ZM1215.05457 253.211197a190.571062 190.571062 0 1 1 190.571062-190.571062 190.847352 190.847352 0 0 1-190.571062 190.571062z m78.466374-298.945834a16.784621 16.784621 0 0 0-16.78462 16.78462 61.681754 61.681754 0 1 1-123.294435 0 16.784621 16.784621 0 0 0-33.638314 0 95.38914 95.38914 0 0 0 49.524992 83.508668 67.276627 67.276627 0 1 0 91.590151 0 95.38914 95.38914 0 0 0 49.524992-83.508668 16.853693 16.853693 0 0 0-16.853693-16.853693z"  horiz-adv-x="1405" />

    
    <glyph glyph-name="head-set" unicode="&#58890;" d="M808.6 445.8c-0.7 10-1.9 19.9-3.5 29.6-11.7 68.4-47.3 130.9-100.3 176.1-53.8 45.7-122.2 70.9-192.8 70.9-68.9 0-136.1-24.1-189.1-67.9-52.3-43.2-88.6-103.4-102.1-169.5-2.3-11.3-3.9-22.7-4.9-34.3-38.7-12.3-66.8-48.5-66.8-91.2v-70c0-52.8 42.7-95.7 95.5-95.7s95.5 42.9 95.5 95.7v70c0 41.8-26.8 77.4-64.2 90.4 0.8 7.7 2.1 15.4 3.6 23C302 582.7 399.8 662.3 512 662.3c116.1 0 214.5-82.9 233.9-197.1 1.1-6.6 2.2-13.3 2.8-20-37.7-12.8-64.7-48.6-64.7-90.6v-70c0-28.9 12.7-54.9 33-72.5-26.7-44-55.7-64.9-95.9-70.4-10.6 25.9-36.1 44.3-65.7 44.3h-38.1c-39.1 0-71-31.9-71-71s31.8-71 71-71h38.1c27.1 0 50.7 15.1 62.6 37.4 0.4 0 0.9-0.1 1.3-0.1 1 0 2.1 0 3.2 0.1 37.7 3.9 70.8 18.1 98.4 42 19.2 16.7 36 37.8 51.9 65.8 2.1-0.1 4.2-0.2 6.4-0.2 52.8 0 95.7 42.9 95.7 95.7v70c0.1 42.5-27.8 78.7-66.3 91.1zM280 289.5c0-19.7-15.8-35.5-35.5-35.5h0.1c-19.7 0-35.6 15.8-35.6 35.5v70c0 19.1 15.1 34.8 34 35.7h3.2c18.9-0.9 33.8-16.5 33.8-35.7v-70zM555.4 104h-38.1c-6 0-11 5-11 11s4.9 11 11 11h38.1c6 0 11-5 11-11s-4.9-11-11-11zM815 284.70000000000005c0-19.7-16-35.7-35.7-35.7h0.2c-19.7 0-35.5 16-35.5 35.7v70c0 19.7 15.8 35.7 35.5 35.7s35.5-16 35.5-35.7v-70z"  horiz-adv-x="1024" />

    
    <glyph glyph-name="icon3" unicode="&#58901;" d="M550.4 0h241.6a56.32 56.32 0 0 1 56 56V246.88H550.4zM176 56a56.32 56.32 0 0 1 56-56h257.12V246.88H176zM792 560h-128a214.88 214.88 0 0 1 40 28.48c52 48 61.44 118.4 20.96 156.16A94.08 94.08 0 0 1 660.64 768a154.24 154.24 0 0 1-102.72-42.88 204.32 204.32 0 0 1-43.36-59.68 206.72 206.72 0 0 1-43.2 59.68A154.56 154.56 0 0 1 368 768a93.76 93.76 0 0 1-64-23.36c-40.48-37.76-31.04-107.68 20.96-156.16A204.64 204.64 0 0 1 364.64 560H232a56.32 56.32 0 0 1-56-56v-196h313.12V535.52h61.28v-227.52H848V504.16A56.32 56.32 0 0 1 792 560z m-317.6 32a30.4 30.4 0 0 0-14.24-2.24 160 160 0 0 0-96 41.12A80 80 0 0 0 336 684.3199999999999a23.2 23.2 0 0 0 6.88 18.4 39.68 39.68 0 0 0 25.12 8.16 98.4 98.4 0 0 0 64-27.52c35.36-32.8 48-82.08 42.4-91.36z m81.12 0c-5.6 11.36 6.56 60.16 41.28 92.64a98.56 98.56 0 0 0 64 27.52 39.04 39.04 0 0 0 25.76-8.16 22.56 22.56 0 0 0 6.88-18.4 78.56 78.56 0 0 0-27.84-53.92 160 160 0 0 0-96-41.12 53.92 53.92 0 0 0-14.08 0.32z"  horiz-adv-x="1024" />

    
    <glyph glyph-name="icon1" unicode="&#58902;" d="M512 646.4A262.4 262.4 0 1 1 774.4 384 262.72 262.72 0 0 1 512 646.4z m88.64-341.44a22.08 22.08 0 1 0 0-44h-66.56v-75.52a21.92 21.92 0 0 0-43.84 0v75.52h-65.12a22.08 22.08 0 0 0 0 44h65.12V348.79999999999995h-65.12a21.92 21.92 0 1 0 0 43.84h65.12l-81.28 84.64a22.24 22.24 0 0 0 32 32l73.76-73.76 69.76 73.28a21.92 21.92 0 1 0 32-30.24l-81.44-84.96h66.56a21.92 21.92 0 1 0 0-43.84h-67.52v-43.84zM512 768a384 384 0 1 1 384-384A384 384 0 0 1 512 768z m0-697.6A313.6 313.6 0 1 0 825.6 384 313.92 313.92 0 0 0 512 70.39999999999998z"  horiz-adv-x="1024" />

    
    <glyph glyph-name="icon4" unicode="&#58903;" d="M776 444.32H417.28l-2.56 139.36c0 43.52 51.2 89.6 115.2 89.6s115.2-48 115.2-89.6v-38.4a44 44 0 0 1 42.88-38.4 46.4 46.4 0 0 1 43.52 38.4v40.96C732.16 686.08 640 768 524.8 768s-208-81.92-208-181.76v-141.92h-68.8a56 56 0 0 1-56-56V56a56 56 0 0 1 56-56h528a56 56 0 0 1 56 56V388.32a56 56 0 0 1-56 56z m-240-272v-66.88a23.2 23.2 0 0 0-46.4 0v67.04a81.44 81.44 0 1 0 46.4 0z"  horiz-adv-x="1024" />

    
    <glyph glyph-name="icon2" unicode="&#58904;" d="M841.12 672H182.88A53.92 53.92 0 0 1 128 617.12v-466.24A53.92 53.92 0 0 1 182.88 96h658.24A53.92 53.92 0 0 1 896 150.88V617.12A55.04 55.04 0 0 1 841.12 672z m-282.56-102.24h214.72a27.04 27.04 0 1 0 0-54.08H558.56a27.04 27.04 0 1 0 0 54.08z m0-103.84h91.04a27.04 27.04 0 1 0 0-53.92h-91.04a27.04 27.04 0 1 0 0 53.92z m-338.08-140.96a123.68 123.68 0 0 0 54.72 80 71.36 71.36 0 0 0 12.8 7.84c3.36 1.6 6.56 3.2 10.08 4.48a92 92 0 0 0 45.12 172.48 92 92 0 0 0 45.12-172.48 93.28 93.28 0 0 0 9.92-4.48 72.8 72.8 0 0 0 12.48-6.88 123.2 123.2 0 0 0 54.72-80 7.68 7.68 0 0 0-2.08-8.16 12.32 12.32 0 0 0-8.16-4.16h-224a12.64 12.64 0 0 0-8.32 4.16 8 8 0 0 0-2.4 7.2z m557.12-131.04H247.2a27.04 27.04 0 1 0 0 54.08H777.6a27.04 27.04 0 0 0 0-54.08z"  horiz-adv-x="1024" />

    
    <glyph glyph-name="icon6" unicode="&#58905;" d="M537.76 724.96l-4.48 21.12a20.48 20.48 0 0 1-40.8 0l-6.24-21.12c-199.2-9.12-352-156-358.24-338.72a10.56 10.56 0 0 1 10.56-10.88h2.56a10.88 10.88 0 0 1 9.6 6.4c16 31.04 56.16 53.44 104.48 53.44a120.64 120.64 0 0 0 99.36-44.48 35.2 35.2 0 0 1 58.08 0 106.56 106.56 0 0 0 57.6 38.4v-288.96a56.64 56.64 0 0 0-113.28 0 42.56 42.56 0 0 1-84.96 0 141.6 141.6 0 0 1 283.2 0v288a104.96 104.96 0 0 0 56.16-37.92 35.2 35.2 0 0 1 58.08 0A120.64 120.64 0 0 0 768 435.2c48 0 89.28-22.4 104.64-53.44a11.04 11.04 0 0 1 9.6-6.4h2.56a10.56 10.56 0 0 1 10.56 10.88C890.08 568.3199999999999 736 715.04 537.76 724.96z"  horiz-adv-x="1024" />

    
    <glyph glyph-name="icon5" unicode="&#58906;" d="M209.28 48H816c44.16 0 80 29.12 80 71.36V554.0799999999999H129.28v-434.72c0-42.24 35.84-71.36 80-71.36z m200.96 432a21.92 21.92 0 0 0 31.04 0l73.6-73.44L584.48 480a21.76 21.76 0 1 0 32-30.24l-81.12-84.8h66.4a21.92 21.92 0 0 0 0-43.84h-67.04v-43.84h66.4a21.92 21.92 0 0 0 0-43.84h-66.4v-75.04a21.92 21.92 0 0 0-43.84 0v75.36h-64.96a21.92 21.92 0 0 0 0 43.84h64.96v43.84h-64.96a21.92 21.92 0 0 0 0 43.84h64.96l-81.12 84.48a21.92 21.92 0 0 0 0.48 30.24zM896 645.44a80 80 0 0 1-80 81.92h-103.36v-16a33.44 33.44 0 0 0-66.72 0v16h-100v-16a33.28 33.28 0 0 0-66.56 0v16H379.2v-16a33.28 33.28 0 0 0-66.56 0v16h-103.36a80 80 0 0 1-80-81.92v-35.52H896zM128 609.9200000000001h1.28v-55.84H128z"  horiz-adv-x="1024" />

    
    <glyph glyph-name="icon7" unicode="&#58907;" d="M880.96 323.03999999999996c-10.56 2.72-44.64 12.48-58.56 17.28s-16-5.92-17.44-12.96-1.28-6.4-2.08-9.76A297.92 297.92 0 0 0 446.08 96a294.88 294.88 0 0 0-203.84 170.4s45.76 3.84 60 5.6 17.76 18.08 4.64 26.4c-13.12 8.32-123.36 70.56-139.68 78.88-20.64 10.56-40.8 4.8-39.2-23.04a385.28 385.28 0 0 1 759.2-56.32 79.04 79.04 0 0 1 1.6 8.48c1.6 9.76 2.72 13.6-7.84 16.64zM896 413.92A385.28 385.28 0 0 1 597.76 758.88C395.2 805.44 184 669.12 142.72 467.04c-3.68-17.76 0-16 11.68-21.92a231.68 231.68 0 0 1 48-16c13.12 0 16 16 16 16.96A304 304 0 0 0 577.28 672a294.88 294.88 0 0 0 208.96-182.72s-55.2-6.4-65.12-8-13.44-12.8-3.84-21.76c4-3.68 130.88-75.52 156.8-75.36 12.48-0.16 23.84 8 21.92 29.76zM606.56 495.2a21.76 21.76 0 1 1-32 30.24l-68.96-73.28-73.6 73.76a22.08 22.08 0 0 1-32-31.2l80.96-84.64H416a21.92 21.92 0 1 1 0-43.84h64.8v-43.84H416a22.08 22.08 0 0 1 0-44h64.8v-75.52a21.92 21.92 0 1 1 43.84 0V278.4H592a22.08 22.08 0 0 1 0 44h-66.72v43.84H592a21.92 21.92 0 0 1 0 43.84h-66.72z"  horiz-adv-x="1024" />

    
    <glyph glyph-name="icon8" unicode="&#58908;" d="M825.44 145.12H768v53.92a28.48 28.48 0 1 1-56.8 0v-53.92h-56.48a28.48 28.48 0 0 1 0-56.96h56.96v-59.68a28.48 28.48 0 1 1 56.8 0v59.68h56.96a28.48 28.48 0 0 1 0 56.96zM667.84 44.32000000000005h-13.12a72.32 72.32 0 0 0 0 144h13.12v10.08a71.36 71.36 0 0 0 30.08 59.52 344.32 344.32 0 0 1-63.04 32A260.96 260.96 0 0 1 765.76 512 256 256 0 1 1 384 290.08000000000004a343.84 343.84 0 0 1-213.28-256 21.92 21.92 0 0 1 5.76-22.72 35.36 35.36 0 0 1 22.72-11.36h473.92a78.4 78.4 0 0 0-5.28 28.48z"  horiz-adv-x="1024" />

    
    <glyph glyph-name="icon10" unicode="&#58909;" d="M512.8 768a384 384 0 1 1 384-384 384 384 0 0 1-384 384z m137.92-581.28a32 32 0 0 0-45.44 0l-113.6 114.24c-8.48 8.48-7.68 20.32-7.68 38.4S480 566.56 480 566.56a32 32 0 1 0 64 0v-227.2c0-0.96 106.88-106.88 106.88-106.88a32 32 0 0 0 0-45.76z m0 0"  horiz-adv-x="1024" />

    
    <glyph glyph-name="icon11" unicode="&#58910;" d="M800 768H224a56 56 0 0 1-56-56v-656A56 56 0 0 1 224 0h576a56 56 0 0 1 56 56v656A56 56 0 0 1 800 768zM513.76 606.24a35.36 35.36 0 1 0-35.2-35.2 34.56 34.56 0 0 0 35.2 35.2z m-197.12 0a35.36 35.36 0 1 0-35.36-35.2 34.56 34.56 0 0 0 35.36 35.2z m-8.64-193.92h302.08a27.04 27.04 0 0 0 0-54.08H308a27.04 27.04 0 0 0 0 54.08z m388.96-230.56H308a27.04 27.04 0 0 0 0 54.08h388.96a27.04 27.04 0 0 0 0-54.08zM688 535.6800000000001a36.16 36.16 0 0 0-35.2 35.36 34.56 34.56 0 0 0 35.2 35.2 35.36 35.36 0 1 0 0-70.56z"  horiz-adv-x="1024" />

    
    <glyph glyph-name="icon12" unicode="&#58911;" d="M896 638.72v30.56a56 56 0 0 1-56 56h-656a56 56 0 0 1-56-56v-570.56a56 56 0 0 1 56-56h656a56 56 0 0 1 56 56V638.56z m-150.88-139.36L566.08 269.28a32 32 0 0 0-22.08-12.16 32 32 0 0 0-24 7.36L453.92 320l-66.24-87.52a32 32 0 0 0-21.92-12.48h-3.84a32 32 0 0 0-20.32 7.36l-57.92 48a32 32 0 0 0 40.8 49.92l32-26.24 66.56 87.84a32 32 0 0 0 22.08 12.64 32 32 0 0 0 24.32-7.36L535.84 336l85.76 107.52-23.84 19.84c-16.96 14.08-13.28 29.28 8.32 33.92l124.32 26.24c21.6 4.48 28.16-6.72 14.72-24.16z"  horiz-adv-x="1024" />

    
    <glyph glyph-name="icon13" unicode="&#58912;" d="M874.88 466.72h-39.36a291.2 291.2 0 0 1-93.44 113.6l-10.56 119.36a13.28 13.28 0 0 1-21.6 9.12 878.56 878.56 0 0 0-92.8-68.8 457.76 457.76 0 0 1-116 14.56c-132.8 0-240-36.96-304-107.2a60 60 0 0 0-48 58.4 26.72 26.72 0 1 1-53.28 0 113.28 113.28 0 0 1 68.16-103.68 265.12 265.12 0 0 1-32-130.24c0-106.08 55.04-182.24 146.72-225.92l22.24-62.4c4.96-16 12-26.72 26.72-26.72h61.12c14.72 0 20.8 9.92 26.72 26.72l8.32 23.36a657.44 657.44 0 0 1 76.8-4.32 519.2 519.2 0 0 1 75.36 4.8l8.8-24.48c6.24-14.72 11.84-26.72 26.72-26.72h61.12c14.72 0 22.24 11.84 26.56 26.72l26.72 74.4h-3.84a272 272 0 0 1 120 137.6h32A21.12 21.12 0 0 1 896 316v129.6a21.12 21.12 0 0 1-21.12 21.12zM544 561.6a19.52 19.52 0 0 0-17.44-11.04 21.44 21.44 0 0 0-8.16 1.76 147.68 147.68 0 0 1-118.4 0 19.2 19.2 0 1 0-16 34.56 185.12 185.12 0 0 0 151.84 0A19.36 19.36 0 0 0 544 561.6z m184.8-109.28a20 20 0 1 0 20 20 20 20 0 0 0-19.36-20z"  horiz-adv-x="1024" />

    
    <glyph glyph-name="icon15" unicode="&#58913;" d="M782.88 768h-537.6a55.68 55.68 0 0 1-55.68-55.84V64a63.04 63.04 0 0 1 89.44-57.6l234.72 129.76 234.88-129.76a14.4 14.4 0 0 1 9.6-1.92 80 80 0 0 1 80 80V712.96A55.84 55.84 0 0 1 782.88 768zM611.2 404.64a21.92 21.92 0 1 0 0-43.68h-66.08v-75.2a21.92 21.92 0 0 0-43.68 0v75.2h-64a21.92 21.92 0 1 0 0 43.68h64V448h-64a21.76 21.76 0 1 0 0 43.52h64L420.64 576a22.08 22.08 0 0 0 32 30.88l73.28-73.28 69.28 72.8a21.76 21.76 0 1 0 32-30.08l-80-84.48h64a21.76 21.76 0 1 0 0-43.52h-66.08v-43.68z"  horiz-adv-x="1024" />

    
    <glyph glyph-name="icon14" unicode="&#58914;" d="M366.08 724.48l5.6-6.88a3.84 3.84 0 0 1 0.96-1.28l40.96-64H608l41.12 64 6.08 7.52-0.96 2.08a29.76 29.76 0 0 1 0.96 5.44A21.76 21.76 0 0 1 642.08 752l-0.8 1.28A701.28 701.28 0 0 1 510.88 768a816 816 0 0 1-130.4-14.56v-1.28a21.76 21.76 0 0 1-13.92-20.16 20.48 20.48 0 0 1 1.12-5.44zM616.64 608H419.68C281.44 560 177.6 408.32 177.6 262.24c0-176 100.64-262.24 340.64-262.24s340.48 85.76 340.48 262.24c0 146.08-103.68 297.76-242.08 345.76z m-3.36-324.96a21.92 21.92 0 1 0 0-43.84h-66.56v-75.68a22.08 22.08 0 0 0-44 0V240h-64.96a21.92 21.92 0 0 0 0 43.84h64.96v43.84h-64.96a22.08 22.08 0 0 0 0 44h64.96l-81.12 84.64a22.08 22.08 0 0 0 32 31.04l73.92-73.6 69.6 73.28a21.76 21.76 0 0 0 31.04 0 22.08 22.08 0 0 0 0-31.04l-81.28-84.96h66.56a22.08 22.08 0 0 0 0-44h-66.72v-43.84z"  horiz-adv-x="1024" />

    
    <glyph glyph-name="icon9" unicode="&#58915;" d="M836.64 228.15999999999997a83.36 83.36 0 0 0 17.6 17.6h-531.2A43.52 43.52 0 0 1 304 240a61.28 61.28 0 0 1-18.88-15.2 81.12 81.12 0 0 1-14.4-24 85.44 85.44 0 0 1-5.44-32 113.6 113.6 0 0 1 4.64-32 108.96 108.96 0 0 1 12.16-26.88 57.12 57.12 0 0 1 18.56-18.56 44.48 44.48 0 0 1 23.52-6.72h530.08a112 112 0 0 0-17.6 22.72 147.04 147.04 0 0 0-12.32 26.08 117.6 117.6 0 0 0 0 70.72 104.96 104.96 0 0 0 12.32 24zM798.24 768.96H529.12C499.04 768 496 768 467.2 768h-44.32v-324.96l-64 90.88-64.8-90.88V768h128.8-197.12a56 56 0 0 1-56-56v-656a56 56 0 0 1 56.32-56H835.68c12.48 0 18.56 4.8 18.56 14.4a13.6 13.6 0 0 1-5.44 12.16 20.64 20.64 0 0 1-12.16 3.84H312.96a68.48 68.48 0 0 0-34.08 9.76 109.6 109.6 0 0 0-32 27.36A142.88 142.88 0 0 0 224 112a179.84 179.84 0 0 0-8.8 57.6 151.2 151.2 0 0 0 8.8 50.56 156.16 156.16 0 0 0 21.92 42.08 110.88 110.88 0 0 0 30.24 28.64 64 64 0 0 0 34.56 10.56h280.64c85.92 0 156.8-0.96 264-0.96V712.96a56 56 0 0 1-57.12 56z"  horiz-adv-x="1024" />

    
    <glyph glyph-name="icon16" unicode="&#58916;" d="M304 707.6800000000001A104.96 104.96 0 0 1 155.68 560 355.52 355.52 0 0 0 304 707.6800000000001zM790.08 736.96a104.8 104.8 0 0 1-72.64-29.28A355.52 355.52 0 0 0 866.4 560a104.96 104.96 0 0 1-76.32 176.96zM786.4 135.67999999999995a354.08 354.08 0 1 1-552.96-5.44l-66.88-69.12a20.64 20.64 0 0 1 14.88-35.2 21.28 21.28 0 0 1 15.04 6.24l65.12 67.52a354.08 354.08 0 0 1 497.28 4.64L828.64 32a21.28 21.28 0 0 1 15.04-6.24 20.64 20.64 0 0 1 14.88 35.2zM600.32 304a21.92 21.92 0 0 0 0-43.84h-66.56v-75.52a21.92 21.92 0 1 0-43.84 0v76h-65.12a21.92 21.92 0 0 0 0 43.84h65.12v44h-65.12a21.92 21.92 0 0 0 0 43.84h65.12l-81.28 84.64a22.24 22.24 0 0 0 32 32l73.76-73.76 69.76 73.28a21.76 21.76 0 1 0 32-30.24l-81.28-84.96h66.56a21.92 21.92 0 0 0 0-43.84h-67.68V304z"  horiz-adv-x="1024" />

    
    <glyph glyph-name="icon17" unicode="&#58917;" d="M901.76 414.72l-336 332.64a54.08 54.08 0 0 1-10.24 8.48 50.24 50.24 0 0 1-56.8 0 42.24 42.24 0 0 1-10.08-9.28l-336-331.84a29.6 29.6 0 0 1 0-42.4c10.56-10.56 26.08-7.52 40.8 6.88l22.56 22.4 36.96 35.36V72a56 56 0 0 1 56-56h436.48a56 56 0 0 1 56 56V435.2l59.52-58.56a52.16 52.16 0 0 1 26.72-10.24 18.88 18.88 0 0 1 14.08 5.92 29.6 29.6 0 0 1 0 42.4zM528 116.48000000000002a166.08 166.08 0 1 0 166.4 166.08A166.08 166.08 0 0 0 528 116.48000000000002zM434.848 278.192l91.968 91.968 92-91.968-92-92z"  horiz-adv-x="1024" />

    
    <glyph glyph-name="icon18" unicode="&#58918;" d="M861.6 270.55999999999995h-6.88a11.36 11.36 0 0 1-11.36-11.36v-30.4c-83.2 16.96-158.88 58.88-189.44 72.64-36.16 16-56.96 3.04-140.64-16a848 848 0 0 0-119.68-20.96c-12-20.48 3.52-53.92 31.2-62.56s129.76 0.96 156.16 5.12c12.8 2.08 14.56-13.6 0-28.96s-57.6-19.04-88.64-28.32c-44.8-13.6-108.48 6.08-108.48 6.08A1100 1100 0 0 1 237.44 208c-57.28 13.28-52-36.48-52-36.48s107.2-70.72 140.48-88.8 84.64-66.24 130.24-62.72 208 46.56 244.48 41.76c20-2.56 53.76-12.16 81.28-18.24l60.8-16v-14.72a11.36 11.36 0 0 1 11.36-11.52h6.88a11.52 11.52 0 0 1 11.52 11.52V259.20000000000005a11.36 11.36 0 0 1-10.88 11.36zM358.88 352a208 208 0 1 1-208 208 208 208 0 0 1 208-208z m-69.6 323.04a14.88 14.88 0 0 0 20.96 0l49.92-49.92 47.2 49.6a14.88 14.88 0 0 0 21.44-20.48l-55.04-57.44h44.96a14.88 14.88 0 0 0 0-29.76h-44.96v-29.76h44.96a14.88 14.88 0 0 0 0-29.76h-44.96v-51.2a14.88 14.88 0 0 0-29.6 0v51.2h-44.16a14.88 14.88 0 0 0 0 29.76h44.16v29.76h-44.16a14.88 14.88 0 0 0 0 29.76h44.16l-55.04 57.12a14.88 14.88 0 0 0 0.16 21.12z"  horiz-adv-x="1024" />

    
    <glyph glyph-name="icon19" unicode="&#58919;" d="M870.4 694.88H153.6a25.6 25.6 0 0 1-25.6-25.6v-131.04h768v131.04a25.6 25.6 0 0 1-25.6 25.6zM128 98.72000000000003a25.6 25.6 0 0 1 25.6-25.6h716.8a25.6 25.6 0 0 1 25.6 25.6V449.28H128z m550.56 147.68h148.8l-32-80h-148.16z"  horiz-adv-x="1024" />

    
    <glyph glyph-name="icon20" unicode="&#58920;" d="M128 669.28v-131.04h768v131.04a25.6 25.6 0 0 1-25.6 25.6H153.6a25.6 25.6 0 0 1-25.6-25.6zM128 449.28v-350.56a25.6 25.6 0 0 1 25.6-25.6h716.8a25.6 25.6 0 0 1 25.6 25.6V449.28z m523.2-312.16l-19.36-16a84.48 84.48 0 0 0-115.84 11.36A61.6 61.6 0 0 0 496 183.36a78.72 78.72 0 0 0 29.6 54.08l70.88 56.32c43.84 35.2 90.72 36.16 119.2 2.72a20.16 20.16 0 0 0 4.8-16 21.28 21.28 0 0 0-7.52-14.4 22.24 22.24 0 0 0-30.4 3.04C666.24 289.44000000000005 640 272 624 261.28l-70.4-56.32a37.12 37.12 0 0 1-5.28-51.84 40.32 40.32 0 0 1 55.36-5.44l19.36 16a22.08 22.08 0 0 0 30.4-3.84c7.52-9.76 7.04-15.84-2.24-22.72z m210.4 192A78.72 78.72 0 0 0 832 275.52l-75.52-60A96 96 0 0 0 688 190.39999999999998a68 68 0 0 0-46.24 25.12 19.36 19.36 0 0 0-4.96 16 20.16 20.16 0 0 0 7.68 14.24 21.92 21.92 0 0 0 30.4-3.04c5.76-6.72 19.04-22.56 53.76 4.8l75.36 60.16a36.32 36.32 0 0 1 14.08 25.28 38.08 38.08 0 0 1-59.04 36.96l-24.64-19.68A21.6 21.6 0 0 0 699.2 368a20.96 20.96 0 0 0 7.84 14.08l25.12 19.2a78.56 78.56 0 0 0 111.04-15.2v1.28a78.08 78.08 0 0 0 18.4-57.76z"  horiz-adv-x="1024" />

    
    <glyph glyph-name="jianpan" unicode="&#58921;" d="M509.269333 827.733333a443.733333 443.733333 0 1 0-443.733333-443.733333 443.733333 443.733333 0 0 0 443.733333 443.733333m0 34.133334a477.866667 477.866667 0 1 1 477.866667-477.866667 477.866667 477.866667 0 0 1-477.866667 477.866667zM201.898667 566.442667h107.349333v-107.349334h-107.349333zM370.858667 566.442667h107.349333v-107.349334h-107.349333zM539.648 566.442667h107.349333v-107.349334h-107.349333zM232.618667 244.224h552.106666v-91.136H232.618667zM370.858667 415.402667h107.349333v-107.349334h-107.349333zM539.648 415.402667h107.349333v-107.349334h-107.349333zM708.437333 415.402667h107.349334v-107.349334h-107.349334zM708.437333 566.442667h107.349334v-107.349334h-107.349334zM201.898667 413.013333h107.349333v-107.349333h-107.349333z"  horiz-adv-x="1024" />

    
    <glyph glyph-name="yuyin" unicode="&#58922;" d="M724.650667 402.090667A18.261333 18.261333 0 0 1 706.730667 384a194.730667 194.730667 0 1 0-389.461334 0 17.066667 17.066667 0 1 1-35.669333 0A232.106667 232.106667 0 0 1 494.933333 151.381333v-72.704h-52.906666a18.090667 18.090667 0 0 1 0-36.010666h141.824a18.090667 18.090667 0 0 1 0 36.010666H529.066667v72.704A232.106667 232.106667 0 0 1 742.4 384a18.090667 18.090667 0 0 1-17.749333 18.090667zM512 258.218667A124.757333 124.757333 0 0 1 636.074667 384V599.552a124.074667 124.074667 0 1 1-248.149334 0V384A124.757333 124.757333 0 0 1 512 258.218667zM509.269333 861.866667a477.866667 477.866667 0 1 1 477.866667-477.866667 477.866667 477.866667 0 0 1-477.866667 477.866667z m0-921.6a443.733333 443.733333 0 1 0 443.733334 443.733333 443.733333 443.733333 0 0 0-443.733334-443.733333z"  horiz-adv-x="1024" />

    
    <glyph glyph-name="turnleft" unicode="&#58923;" d="M512 883.809524a499.809524 499.809524 0 1 1 499.809524-499.809524A499.809524 499.809524 0 0 1 512 883.809524z m0-975.238095a475.428571 475.428571 0 1 0 475.428571 475.428571 476.038095 476.038095 0 0 0-475.428571-475.428571zM618.544762 644.998095a24.380952 24.380952 0 0 1-34.499048 0l-243.809524-243.809524a24.380952 24.380952 0 0 1 0-34.377142l243.809524-243.809524a24.380952 24.380952 0 1 1 34.499048 34.377143L391.92381 384l226.620952 226.620952a24.380952 24.380952 0 0 1 0 34.377143z"  horiz-adv-x="1024" />

    
    <glyph glyph-name="turnright" unicode="&#58924;" d="M512 883.809524a499.809524 499.809524 0 1 1 499.809524-499.809524A499.809524 499.809524 0 0 1 512 883.809524z m0-975.238095a475.428571 475.428571 0 1 0 475.428571 475.428571 476.038095 476.038095 0 0 0-475.428571-475.428571zM439.954286 644.998095a24.380952 24.380952 0 1 1-34.499048-34.377143L632.07619 384 405.455238 157.379048a24.380952 24.380952 0 1 1 34.499048-34.377143l243.809524 243.809524a24.380952 24.380952 0 0 1 0 34.377142z"  horiz-adv-x="1024" />

    
    <glyph glyph-name="yuyin1" unicode="&#58925;" d="M512 226.816A155.989333 155.989333 0 0 1 667.136 384V653.482667a155.136 155.136 0 1 1-310.272 0V384A156.16 156.16 0 0 1 512 226.816zM800.085333 384a22.357333 22.357333 0 1 1-44.544 0 243.541333 243.541333 0 1 0-487.082666 0 22.357333 22.357333 0 1 1-44.544 0A290.133333 290.133333 0 0 1 489.813333 93.866667v-90.794667h-66.218666a22.528 22.528 0 0 1 0-45.056h177.322666a22.528 22.528 0 0 1 0 45.056H534.186667V93.866667a290.133333 290.133333 0 0 1 265.898666 290.133333z"  horiz-adv-x="1024" />

    
    <glyph glyph-name="home" unicode="&#58926;" d="M921.134545 421.236364L553.658182 784.058182a58.88 58.88 0 0 1-11.170909 9.309091 54.923636 54.923636 0 0 1-61.905455 0 57.250909 57.250909 0 0 1-11.170909-10.24L102.865455 421.236364a32.581818 32.581818 0 0 1-9.774546-23.272728 32.116364 32.116364 0 0 1 9.774546-23.272727c11.403636-11.636364 28.392727-8.145455 44.450909 7.68l24.669091 23.272727 40.261818 38.632728v-373.992728a84.712727 84.712727 0 0 1 84.945454-84.014545h143.592728V225.28a33.745455 33.745455 0 0 0 33.978181 33.512727h74.24a33.512727 33.512727 0 0 0 33.978182-33.512727v-239.010909h143.592727a84.712727 84.712727 0 0 1 84.945455 84.014545v372.363637l65.163636-64a56.785455 56.785455 0 0 1 29.090909-11.170909 20.48 20.48 0 0 1 15.36 6.516363 32.116364 32.116364 0 0 1 9.774546 23.272728 32.581818 32.581818 0 0 1-9.774546 23.272727z m0 0"  horiz-adv-x="1024" />

    
    <glyph glyph-name="back" unicode="&#58927;" d="M512 842.105263a458.105263 458.105263 0 1 1 458.105263-458.105263A458.105263 458.105263 0 0 1 512 842.105263z m0-891.418947A433.313684 433.313684 0 1 0 945.313684 384 433.852632 433.852632 0 0 0 512-49.313684zM742.534737 408.791579H340.614737L496.370526 564.547368a24.791579 24.791579 0 1 1-35.031579 35.031579l-198.063158-198.063158a24.656842 24.656842 0 0 1 0-35.031578L461.338947 168.421053a24.791579 24.791579 0 1 1 35.031579 35.031579L340.614737 359.208421h401.92a24.791579 24.791579 0 0 1 0 49.583158z"  horiz-adv-x="1024" />

    
    <glyph glyph-name="hujiaodatangjingli" unicode="&#58928;" d="M924.564211 134.332632c-48.101053 61.574737-262.063158 105.094737-262.063158 105.094736C690.795789 76.8 512-22.231579 512-22.231579S333.204211 76.8 361.498947 239.427368c0 0-213.962105-43.52-262.063158-105.094736a199.545263 199.545263 0 0 1-40.421052-156.294737c3.772632-26.947368 10.374737-43.250526 53.894737-52.143158h798.989473c43.385263 8.892632 49.987368 25.195789 53.894737 52.143158a199.545263 199.545263 0 0 1-41.229473 156.294737zM569.936842 210.593684l-26.947368 28.833684h-62.517895l-26.947368-28.833684a107.789474 107.789474 0 0 1 39.612631-44.732631l-39.073684-100.244211s28.968421-41.364211 57.936842-52.008421c28.968421 10.644211 57.936842 52.008421 57.936842 52.008421l-39.612631 100.244211a107.789474 107.789474 0 0 1 39.612631 44.732631zM358.938947 343.578947a189.978947 189.978947 0 0 1 151.983158-75.452631h2.15579A189.978947 189.978947 0 0 1 665.061053 343.578947 521.296842 521.296842 0 0 1 714.105263 444.092632c30.315789 35.974737 41.768421 70.332632 34.088421 101.995789a77.338947 77.338947 0 0 1-15.898947 31.663158 234.307368 234.307368 0 0 1 3.233684 35.301053 229.052632 229.052632 0 0 1-30.046316 114.391579 183.646316 183.646316 0 0 1-96.606316 92.025263L606.315789 820.547368a216.791579 216.791579 0 0 1-188.631578 0l-3.098948-1.077894a184.724211 184.724211 0 0 1-97.145263-92.833685 231.882105 231.882105 0 0 1-29.507368-112.64 238.08 238.08 0 0 1-1.347369-42.442105 78.821053 78.821053 0 0 1-11.587368-25.6c-7.68-31.663158 3.772632-66.021053 34.088421-101.995789a521.296842 521.296842 0 0 1 49.852631-100.378948zM323.368421 546.762105c73.027368-11.452632 114.526316 129.751579 114.661053 129.482106s96.606316-82.458947 155.486315-98.762106 74.374737-33.145263 91.486316-50.930526a193.347368 193.347368 0 0 0-146.32421-107.789474 42.442105 42.442105 0 0 1-37.322106 18.863158c-22.501053 0-40.421053-13.473684-40.421052-31.12421s18.054737-31.124211 40.421052-31.124211a45.675789 45.675789 0 0 1 31.393685 11.317895A220.833684 220.833684 0 0 1 669.237895 451.368421a464.976842 464.976842 0 0 0-41.768421-84.48 142.282105 142.282105 0 0 0-114.256842-56.185263h-2.425264a142.282105 142.282105 0 0 0-114.256842 56.185263c-22.231579 30.585263-49.583158 104.690526-49.583158 104.690526-41.364211 45.271579-33.145263 67.503158-23.578947 75.183158z"  horiz-adv-x="1024" />

    
    <glyph glyph-name="licaiquhao" unicode="&#58929;" d="M881.178947 399.629474h-19.806315a33.010526 33.010526 0 0 0 0 66.021052h19.806315a22.770526 22.770526 0 0 1 22.63579 22.63579V684.463158A22.770526 22.770526 0 0 1 881.178947 707.368421H142.416842a22.905263 22.905263 0 0 1-22.635789-22.905263v-196.176842a22.905263 22.905263 0 0 1 22.635789-22.63579h16.707369a33.010526 33.010526 0 0 0 0-66.021052h-16.707369A88.656842 88.656842 0 0 0 53.894737 488.286316V684.463158a88.656842 88.656842 0 0 0 88.656842 88.656842H881.178947A88.656842 88.656842 0 0 0 970.105263 684.463158v-196.176842a88.522105 88.522105 0 0 0-88.656842-88.656842z m0 0M814.618947 611.84H205.204211a33.010526 33.010526 0 0 1 0-66.021053H242.526316v-465.111579c0-47.427368 33.953684-85.827368 75.722105-85.827368h380.092632c41.768421 0 75.722105 38.4 75.722105 85.827368V545.684211h40.421053a33.010526 33.010526 0 1 1 0 66.021052zM661.827368 150.501053H451.772632a33.010526 33.010526 0 0 0 0 66.021052h210.054736a33.010526 33.010526 0 1 0 0-66.021052z m0 149.962105H362.172632a33.010526 33.010526 0 1 0 0 66.021053h299.654736a33.010526 33.010526 0 1 0 0-66.021053z"  horiz-adv-x="1024" />

    
    <glyph glyph-name="shoujiyinhanggoumai" unicode="&#58930;" d="M943.157895 714.509474a82.997895 82.997895 0 0 1-63.461053 28.56421l-656.572631-1.751579-2.56 14.551579a96.067368 96.067368 0 0 1-94.31579 83.267369H84.884211a31.124211 31.124211 0 1 1 0-62.248421h41.768421a34.762105 34.762105 0 0 0 32.336842-30.181053l31.932631-182.164211 56.454737-390.063157a95.258947 95.258947 0 0 1 92.968421-83.132632l530.728421 1.347368a31.124211 31.124211 0 1 1 0 62.248421l-530.728421-1.482105a33.414737 33.414737 0 0 0-30.989474 29.237895l-4.850526 71.949474 519.545263 1.347368A94.315789 94.315789 0 0 1 916.210526 337.92l50.661053 294.669474A104.016842 104.016842 0 0 1 943.157895 714.509474z m0 0M348.833684 55.511579a63.865263 63.865263 0 1 1 63.865263-63.59579 63.865263 63.865263 0 0 1-63.865263 63.59579z m0 0M806.265263 56.724211A63.865263 63.865263 0 1 1 870.265263-6.736842a64 64 0 0 1-64 63.595789z m0 0"  horiz-adv-x="1024" />

    
    <glyph glyph-name="guanbi" unicode="&#58931;" d="M560.790588 384L954.428235 777.336471a34.635294 34.635294 0 0 1-49.091764 48.790588L512 432.790588 120.470588 825.223529a34.334118 34.334118 0 0 1-48.790588 0A34.635294 34.635294 0 0 1 70.475294 775.529412l391.529412-391.529412-391.529412-391.529412A34.635294 34.635294 0 1 1 120.470588-57.524706l391.529412 391.529412 391.529412-391.529412a33.430588 33.430588 0 0 1 24.395294-10.24 34.635294 34.635294 0 0 1 24.395294 60.235294z"  horiz-adv-x="1024" />

    
    <glyph glyph-name="right" unicode="&#58932;" d="M681.863529 384L280.094118 785.769412a30.117647 30.117647 0 0 0 0 41.562353 30.117647 30.117647 0 0 0 41.261176 0l421.647059-421.647059a30.117647 30.117647 0 0 0 0-41.261177l-421.647059-421.647058a30.117647 30.117647 0 0 0-41.261176 39.152941L681.863529 384z m0 0"  horiz-adv-x="1024" />

    
    <glyph glyph-name="chongxinduihua" unicode="&#58933;" d="M920.106667 589.653333a18.346667 18.346667 0 0 1-18.346667-18.346666v-126.293334a15.786667 15.786667 0 0 0-31.146667 2.986667v187.733333a18.346667 18.346667 0 0 1-18.346666 18.346667 18.346667 18.346667 0 0 1-18.56-18.346667v-65.706666a15.786667 15.786667 0 0 0-31.146667 3.413333v99.413333a18.56 18.56 0 0 1-18.346667 18.56 18.56 18.56 0 0 1-18.56-18.56v-34.56a15.786667 15.786667 0 0 0-15.786666-15.786666 16 16 0 0 0-15.36 12.373333V704a18.346667 18.346667 0 0 1-18.346667 18.56 18.56 18.56 0 0 1-18.56-18.56v-10.453333a15.786667 15.786667 0 0 0-15.786667-15.786667 16 16 0 0 0-15.36 12.373333v42.666667a18.346667 18.346667 0 0 1-18.346666 18.56 18.56 18.56 0 0 1-18.56-18.56v-149.333333a15.786667 15.786667 0 0 0-15.786667-15.786667 16 16 0 0 0-15.36 12.373333V746.666667a18.346667 18.346667 0 0 1-18.346667 18.56 18.56 18.56 0 0 1-18.56-18.56v-45.866667A15.573333 15.573333 0 0 0 530.56 704V760.533333a18.56 18.56 0 0 1-37.12 0v-139.306666a15.36 15.36 0 0 0-15.36-12.16 15.573333 15.573333 0 0 0-15.573333 15.573333v123.733333a18.56 18.56 0 1 1-36.906667 0v-248.746666a15.786667 15.786667 0 0 0-15.786667-15.573334 15.573333 15.573333 0 0 0-15.36 12.373334V737.493333a18.56 18.56 0 1 1-36.906666 0v-149.333333a15.786667 15.786667 0 0 0-15.146667-11.52 15.36 15.36 0 0 0-16 15.146667V721.493333a18.56 18.56 0 1 1-36.906667 0v-54.826666a15.573333 15.573333 0 0 0-15.36-11.733334 17.066667 17.066667 0 0 0-15.786666 12.373334v9.813333a18.56 18.56 0 0 1-36.906667 0V618.666667a15.786667 15.786667 0 0 0-15.36-11.946667 16.64 16.64 0 0 0-15.786667 10.88v17.706667a18.56 18.56 0 1 1-36.906666 0v-108.586667a15.786667 15.786667 0 0 0-31.146667 3.2v-2.56a18.56 18.56 0 1 1-36.906667 0v-138.453333a18.56 18.56 0 1 1 36.906667 0V469.333333a15.786667 15.786667 0 0 0 31.146667 3.413334v-160.64a18.56 18.56 0 0 1 36.906666 0v41.6a16 16 0 0 0 15.786667 16 15.786667 15.786667 0 0 0 15.36-12.16v-77.653334a18.56 18.56 0 0 1 36.906667 0v23.466667a15.786667 15.786667 0 0 0 31.146666 3.626667v-65.706667a18.56 18.56 0 1 1 36.906667 0V270.933333a17.706667 17.706667 0 0 0 16 11.093334 15.786667 15.786667 0 0 0 15.146667-11.733334v-40.746666a18.56 18.56 0 1 1 36.906666 0v14.293333a15.573333 15.573333 0 0 0 15.36 12.373333 15.786667 15.786667 0 0 0 15.786667-15.786666v-23.04a18.56 18.56 0 0 1 36.906667 0v23.466666a15.573333 15.573333 0 0 0 30.933333 3.413334v-14.72a18.56 18.56 0 0 1 37.12 0v44.586666a15.573333 15.573333 0 0 0 30.933333 3.2v-38.826666a18.56 18.56 0 0 1 18.56-18.346667 18.346667 18.346667 0 0 1 18.346667 18.346667v88.533333a16 16 0 0 0 15.36 12.373333 15.786667 15.786667 0 0 0 15.786667-15.786666v-213.333334a18.346667 18.346667 0 0 1 18.56-18.346666 18.133333 18.133333 0 0 1 18.346666 18.346666v23.253334a16 16 0 0 0 15.36 12.373333 15.786667 15.786667 0 0 0 15.786667-15.786667v-122.666666a18.56 18.56 0 0 1 18.56-18.56 18.346667 18.346667 0 0 1 18.346667 18.56v167.253333a16 16 0 0 0 15.36 12.373333 15.786667 15.786667 0 0 0 15.786666-15.786666v-1.706667a18.56 18.56 0 0 1 18.56-18.56 18.56 18.56 0 0 1 18.346667 18.56v52.48a15.786667 15.786667 0 0 0 31.146667 3.413333v-14.506666A18.56 18.56 0 0 1 853.333333 192a18.56 18.56 0 0 1 18.346667 18.346667v177.28a15.786667 15.786667 0 0 0 31.146667 3.413333v-87.68a18.56 18.56 0 0 1 18.346666-18.346667 18.56 18.56 0 0 1 18.56 18.346667V571.306667a18.346667 18.346667 0 0 1-19.626666 18.346666z m-698.666667-178.773333a15.786667 15.786667 0 0 0-15.36-11.946667 15.36 15.36 0 0 0-15.786667 15.36v151.253334a17.066667 17.066667 0 0 0 15.786667 11.946666 15.786667 15.786667 0 0 0 15.36-12.16z m68.053333-50.986667a15.786667 15.786667 0 0 0-15.36-11.946666 16 16 0 0 0-15.786666 16V614.613333a16.213333 16.213333 0 0 0 15.786666 11.093334 15.786667 15.786667 0 0 0 15.36-11.946667z m68.053334-37.12a15.786667 15.786667 0 0 0-15.146667-11.733333 17.28 17.28 0 0 0-16 10.666667v209.28a16.426667 16.426667 0 0 0 16 16.213333 15.786667 15.786667 0 0 0 15.146667-11.52z m68.053333-21.333333a15.786667 15.786667 0 0 0-15.786667-15.786667 15.573333 15.573333 0 0 0-15.36 12.373334v144.426666a15.573333 15.573333 0 0 0 15.36 12.373334 15.786667 15.786667 0 0 0 15.786667-15.786667z m67.84-3.2a15.573333 15.573333 0 0 0-30.933333 3.413333v262.4a15.573333 15.573333 0 0 0 30.933333 3.413334z m68.053333 33.493333a15.573333 15.573333 0 0 0-30.933333 3.2V643.626667a15.573333 15.573333 0 0 0 30.933333 3.413333zM629.546667 384a15.786667 15.786667 0 0 0-15.786667-15.786667 16 16 0 0 0-15.36 12.373334v145.066666a16 16 0 0 0 15.36 12.373334 15.786667 15.786667 0 0 0 15.786667-15.786667z m68.053333-193.706667a15.786667 15.786667 0 0 0-15.786667-15.573333 16 16 0 0 0-15.36 12.373333V636.8a16 16 0 0 0 15.36 12.373333 15.786667 15.786667 0 0 0 15.786667-15.573333z m68.053333 41.173334a15.786667 15.786667 0 0 0-15.786666-15.786667 16 16 0 0 0-15.36 12.373333V581.12a15.786667 15.786667 0 0 0 31.146666-3.413333z m68.053334 47.36a15.786667 15.786667 0 0 0-31.146667 3.413333V512a15.786667 15.786667 0 0 0 31.146667 3.413333z"  horiz-adv-x="1024" />

    
    <glyph glyph-name="chongxinhuihua" unicode="&#58934;" d="M973.44 643.6800000000001a18.56 18.56 0 0 1-18.56-18.56v-25.12a19.2 19.2 0 0 0-19.04-18.24h-1.44a19.36 19.36 0 0 0-19.36 19.36v69.92a18.56 18.56 0 1 1-37.12 0v-28.16A19.2 19.2 0 0 0 858.88 624h-1.44a19.36 19.36 0 0 0-19.2 19.36v86.56a18.56 18.56 0 0 1-37.12 0 19.2 19.2 0 0 0-19.2-18.24h-1.28a19.36 19.36 0 0 0-19.36 19.36v25.6a18.56 18.56 0 0 1-37.12 0v-88.96a19.2 19.2 0 0 0-19.04-18.24H704a19.36 19.36 0 0 0-19.36 19.36v112a18.56 18.56 0 0 1-37.12 0v-56.32a19.04 19.04 0 0 0-19.04-18.24h-1.44A19.36 19.36 0 0 0 608 725.28V801.76a18.56 18.56 0 1 1-37.12 0v-108.96a19.36 19.36 0 0 0-19.2-18.24h-1.28a19.36 19.36 0 0 0-19.36 19.36V816a18.56 18.56 0 1 1-37.12 0v-168a19.04 19.04 0 0 0-19.04-18.08h-1.44a19.36 19.36 0 0 0-19.36 19.2V803.04a18.56 18.56 0 0 1-37.12 0v-48A19.2 19.2 0 0 0 397.44 736h-1.44a19.36 19.36 0 0 0-19.2 19.36V790.88a18.56 18.56 0 1 1-37.12 0v-73.76A19.2 19.2 0 0 0 320 698.88a19.36 19.36 0 0 0-19.36 19.2V775.84a18.56 18.56 0 1 1-37.12 0V656a19.2 19.2 0 0 0-19.04-18.24h-1.44A19.36 19.36 0 0 0 222.88 656v66.4a18.56 18.56 0 1 1-37.12 0v-91.52a19.2 19.2 0 0 0-19.04-18.24h-1.44a19.36 19.36 0 0 0-19.2 19.36v36a18.56 18.56 0 0 1-37.12 0v-110.72a19.2 19.2 0 0 0-19.2-18.24h-1.28a19.36 19.36 0 0 0-19.36 19.2v5.6a18.56 18.56 0 0 1-37.12 0v-185.6a18.56 18.56 0 0 1 37.12 0v7.36a19.36 19.36 0 0 0 19.36 19.36h1.28a19.2 19.2 0 0 0 19.2-18.24v-77.6a18.56 18.56 0 0 1 37.12 0v8.48a19.2 19.2 0 0 0 19.2 19.2h1.44a19.04 19.04 0 0 0 19.04-18.08v-54.24a18.56 18.56 0 0 1 37.12 0V288a19.36 19.36 0 0 0 19.36 19.36h1.44a19.2 19.2 0 0 0 19.04-18.24v-70.56a18.56 18.56 0 0 1 37.12 0v8A19.36 19.36 0 0 0 320 246.24a19.2 19.2 0 0 0 19.2-18.24v-18.72a18.56 18.56 0 1 1 37.12 0 19.36 19.36 0 0 0 19.2 19.36h1.44A19.2 19.2 0 0 0 416 210.24v-13.6a18.56 18.56 0 1 1 37.12 0v112a19.36 19.36 0 0 0 19.36 19.2h1.44a19.04 19.04 0 0 0 19.04-18.08v-99.84a18.56 18.56 0 0 1 37.12 0v41.76a19.36 19.36 0 0 0 19.36 19.36h1.28a19.36 19.36 0 0 0 19.2-18.24v-32a18.56 18.56 0 1 1 37.12 0v11.04a19.36 19.36 0 0 0 19.2 19.36h1.44a19.2 19.2 0 0 0 19.04-18.24v-157.28a18.56 18.56 0 1 1 37.12 0V302.4A19.36 19.36 0 0 0 704 321.76h1.44A19.2 19.2 0 0 0 724.16 304v-352a18.56 18.56 0 1 1 37.12 0V221.76a19.36 19.36 0 0 0 19.36 19.36h1.28a19.36 19.36 0 0 0 19.2-18.24v-99.36a18.56 18.56 0 0 1 37.12 0v198.4a19.2 19.2 0 0 0 19.2 19.2h1.44a19.04 19.04 0 0 0 19.04-18.08v-134.72a18.56 18.56 0 1 1 37.12 0V356a19.36 19.36 0 0 0 19.36 19.36h1.44a19.2 19.2 0 0 0 19.04-18.24v-41.44a18.56 18.56 0 1 1 37.12 0V625.12a18.56 18.56 0 0 1-18.56 18.56zM89.76 440h-1.28a19.36 19.36 0 0 0-19.36 19.36v25.28a19.36 19.36 0 0 0 19.36 19.36h1.28a19.36 19.36 0 0 0 19.2-18.24v-27.52a19.36 19.36 0 0 0-19.2-18.24z m76.96-68.16h-1.44a19.36 19.36 0 0 0-19.2 19.36V558.24a19.36 19.36 0 0 0 19.2 19.36h1.44a19.04 19.04 0 0 0 19.04-17.6v-169.92a19.2 19.2 0 0 0-19.04-18.24z m76.96-28.96h-1.44a19.36 19.36 0 0 0-19.36 19.36V582.88a19.36 19.36 0 0 0 19.36 19.36h1.44a19.2 19.2 0 0 0 19.04-18.24v-222.88a19.2 19.2 0 0 0-19.04-18.24zM320 281.28a19.36 19.36 0 0 0-19.36 19.36V644.48A19.36 19.36 0 0 0 320 663.84a19.36 19.36 0 0 0 19.2-18.24v-346.08a19.36 19.36 0 0 0-19.2-18.24z m76.96-17.92h-1.44a19.36 19.36 0 0 0-19.2 19.36v400a19.36 19.36 0 0 0 19.2 19.36h1.44A19.2 19.2 0 0 0 416 683.2v-401.6a19.2 19.2 0 0 0-18.56-18.24z m76.96 99.04h-1.44a19.36 19.36 0 0 0-19.36 19.36V576a19.36 19.36 0 0 0 19.36 19.36h1.44A19.2 19.2 0 0 0 493.44 576v-195.36a19.2 19.2 0 0 0-19.04-18.24z m76.8-56.32h-1.28a19.36 19.36 0 0 0-19.36 19.36V620.3199999999999A19.36 19.36 0 0 0 549.92 640h1.28a19.2 19.2 0 0 0 19.2-18.24v-297.44a19.2 19.2 0 0 0-19.2-18.24z m76.96-20.48h-1.44A19.2 19.2 0 0 0 608 304V651.52a19.36 19.36 0 0 0 19.2 19.36h1.44a19.04 19.04 0 0 0 19.04-18.24V304a19.04 19.04 0 0 0-19.52-18.4z m76.96 71.2H704a19.36 19.36 0 0 0-19.36 19.2V595.2A19.36 19.36 0 0 0 704 614.4h1.44a19.2 19.2 0 0 0 19.04-18.24v-221.28a19.04 19.04 0 0 0-19.36-18.08z m76.8-80h-1.28a19.36 19.36 0 0 0-19.36 19.2V656a19.36 19.36 0 0 0 19.36 19.36h1.28a19.2 19.2 0 0 0 19.2-18.24V294.4a19.2 19.2 0 0 0-18.72-18.24z m76.96 100h-1.44a19.36 19.36 0 0 0-19.2 19.36V570.4a19.36 19.36 0 0 0 19.2 19.36h1.44a19.2 19.2 0 0 0 19.04-18.24v-177.12a19.2 19.2 0 0 0-18.56-18.24z m76.96 34.24h-0.96a19.36 19.36 0 0 0-19.36 19.36V528a19.36 19.36 0 0 0 19.36 19.2h1.44a19.04 19.04 0 0 0 19.04-19.2v-100a19.2 19.2 0 0 0-19.04-17.6z"  horiz-adv-x="1024" />

    
    <glyph glyph-name="renwu" unicode="&#58966;" d="M223.25198 756.506224v-745.012448h1.488547l320.756761 224.400858 323.034536-224.400858h0.38962V756.506224h-645.669464z m439.610693-458.742009l-116.765971 61.400039-116.76597-61.400039 22.288234 130.033014-94.487727 92.090069 130.562498 18.981463 58.392975 118.304468 58.382986-118.304468 130.562497-18.981463-94.467746-92.090069 22.298224-130.033014z"  horiz-adv-x="1024" />

    


  </font>
</defs>
</svg>
